<?xml version="1.0" encoding="UTF-8" standalone="no"?>
<svg width="325px" height="31px" viewBox="0 0 325 31" version="1.1" xmlns="http://www.w3.org/2000/svg" xmlns:xlink="http://www.w3.org/1999/xlink">
    <!-- Generator: Sketch 42 (36781) - http://www.bohemiancoding.com/sketch -->
    <title>share some love</title>
    <desc>Created with Sketch.</desc>
    <defs></defs>
    <g id="New-version" stroke="none" stroke-width="1" fill="none" fill-rule="evenodd">
        <g id="auto-tech" transform="translate(-896.000000, -1126.000000)" fill="#525252">
            <g id="Footer" transform="translate(-3.000000, 1117.000000)">
                <g id="share-some-love" transform="translate(896.000000, 0.000000)">
                    <text id="don’t-forget-to-shar" font-family="HanziPenTC-W3, HanziPen TC" font-size="18" font-weight="normal">
                        <tspan x="3.398" y="26">don’t forget to share if you liked it! </tspan>
                    </text>
                    <path d="M296.418401,49.403888 C301.63755,43.270613 308.882105,37.2620995 310.704825,29.1732772 C312.453711,21.4088348 310.416723,12.1073308 308.219758,4.40776439 C310.279186,5.80081557 312.258988,7.3107861 314.22576,8.85925446 C316.028213,10.2779709 318.608108,7.77347301 316.784663,6.33835938 C312.981417,3.34408355 309.157178,0.418248306 304.816815,-1.79323827 C303.833791,-2.29371009 302.40703,-1.86952101 302.172494,-0.695337134 C301.400118,3.16157531 300.691443,7.02062651 299.276989,10.710715 C298.453217,12.8587515 301.961846,13.7491921 302.779103,11.616127 C303.589844,9.50231084 304.164602,7.33074794 304.656838,5.1392232 C306.602618,12.050297 307.985222,19.439742 307.451725,26.5882191 C306.84946,34.6770413 298.843387,41.0277578 293.858774,46.8837058 C292.371208,48.6296538 294.918529,51.1655203 296.418401,49.403888 Z" id="Shape" transform="translate(305.408282, 24.000000) scale(1, -1) rotate(-302.000000) translate(-305.408282, -24.000000) "></path>
                </g>
            </g>
        </g>
    </g>
</svg>