<?xml version="1.0" encoding="UTF-8" standalone="no"?>
<svg width="324px" height="30px" viewBox="0 0 324 30" version="1.1" xmlns="http://www.w3.org/2000/svg" xmlns:xlink="http://www.w3.org/1999/xlink">
    <!-- Generator: Sketch 42 (36781) - http://www.bohemiancoding.com/sketch -->
    <title>share some love</title>
    <desc>Created with Sketch.</desc>
    <defs></defs>
    <g id="New-version" stroke="none" stroke-width="1" fill="none" fill-rule="evenodd">
        <g id="auto-tech" transform="translate(-897.000000, -1127.000000)" fill="#525252">
            <g id="Footer" transform="translate(-3.000000, 1117.000000)">
                <g id="share-some-love" transform="translate(900.000000, 0.000000)">
                    <path d="M6.54279031,13.3773087 C6.54279031,13.5180299 6.48871767,13.9401935 6.38057237,14.6613896 C6.23637865,15.4353562 6.16428178,16.0158311 6.14625757,16.4028144 C6.11020914,16.5787159 6.11020914,16.824978 6.11020914,17.1416007 C6.11020914,17.528584 6.00206384,17.8627968 5.78577325,18.1266491 C5.62355531,20.114336 5.55145845,21.4335972 5.55145845,22.0668426 C5.55145845,23.6675462 5.69565217,25.1978892 5.98403963,26.6754617 C6.05613649,27.0448549 6.09218492,27.3262973 6.09218492,27.5373791 C6.09218492,27.6605101 6.03811227,27.766051 5.92996698,27.8715919 C5.80379747,27.9771328 5.67762796,28.0474934 5.56948266,28.0474934 C5.28109521,28.0474934 5.10085305,27.7836412 5.02875619,27.291117 C4.84851403,26.3060686 4.72234452,25.2682498 4.65024766,24.1424802 C4.36186021,24.7229551 3.96532746,25.2330695 3.49669785,25.6728232 C2.91992295,26.2181179 2.36117226,26.4995602 1.82044579,26.4995602 C1.22564667,26.4995602 0.775041277,26.3060686 0.468629609,25.9542656 C0.144193726,25.6024626 0,25.1275286 0,24.5294635 C0,23.5795954 0.414556962,22.5417766 1.24367089,21.3984169 C2.07278481,20.2726473 2.81177766,19.6921724 3.49669785,19.6921724 C3.85718217,19.6921724 4.2356907,19.9208443 4.63222345,20.3430079 C4.86653825,17.1064204 5.19097413,14.7493404 5.58750688,13.289358 C5.65960374,13.0079156 5.82182168,12.8496042 6.0741607,12.8496042 C6.38057237,12.8496042 6.54279031,13.0255057 6.54279031,13.3773087 Z M4.54210237,22.0316623 C4.1275454,21.7854002 3.85718217,21.416007 3.71298844,20.9058927 C3.56879472,20.8883026 3.49669785,20.8707124 3.46064942,20.8707124 C3.04609246,20.8707124 2.5233902,21.3104661 1.91056687,22.1723835 C1.2616951,23.0694811 0.955283434,23.8434477 0.955283434,24.4942832 C0.955283434,25.0747581 1.17157402,25.3562005 1.64020363,25.3562005 C2.23500275,25.3562005 2.82980187,25.0043975 3.40657677,24.3007916 C3.92927903,23.6675462 4.30778756,22.9111697 4.54210237,22.0316623 Z M13.6623555,22.0668426 C13.6623555,22.7528584 13.5722345,23.3157432 13.3919923,23.7554969 C13.3379196,23.8962181 13.2658228,24.1072999 13.1576775,24.3887423 C12.9774353,24.8636763 12.6529994,25.2858399 12.1483214,25.6728232 C11.6436434,26.0598065 11.1750138,26.2708883 10.7063841,26.2708883 C9.94936709,26.2708883 9.33654375,25.9542656 8.86791414,25.2858399 C8.41730875,24.705365 8.20101816,24.0193492 8.20101816,23.2277924 C8.20101816,22.5065963 8.38126032,21.7854002 8.74174463,21.0817942 C9.12025316,20.3254178 9.60690699,19.7977133 10.2197303,19.4810906 C10.5441662,19.3227792 10.778481,19.1644679 10.9226747,18.9885664 C10.9947716,18.9709763 11.0848927,18.9533861 11.1750138,18.9533861 C11.2110622,18.9533861 11.3552559,18.9885664 11.5715465,19.058927 C12.1843698,19.2875989 12.6890479,19.6745822 13.0855806,20.237467 C13.4640892,20.8003518 13.6623555,21.416007 13.6623555,22.0668426 Z M12.616951,22.3306948 C12.616951,21.5039578 12.364612,20.941073 11.8959824,20.6244503 C11.6075949,20.6244503 11.3552559,20.5540897 11.1750138,20.4485488 C10.5441662,20.4837291 10.0575124,20.8003518 9.69702807,21.3984169 C9.3906164,21.9261214 9.24642267,22.5417766 9.24642267,23.2277924 C9.24642267,23.7730871 9.37259218,24.2128408 9.64295542,24.5646438 C9.91331866,24.9516271 10.2557788,25.1275286 10.6883599,25.1275286 C11.1569895,25.1275286 11.5895707,24.7933157 12.0221519,24.1248901 C12.4186846,23.5092348 12.616951,22.9111697 12.616951,22.3306948 Z M21.8813979,20.7651715 C21.8813979,20.58927 21.7912768,20.4133685 21.6290589,20.237467 C21.4668409,20.0967458 21.2865988,20.0087951 21.0703082,19.9912049 C19.5923225,20.8531223 18.1503853,22.1899736 16.7264722,24.001759 C16.7264722,22.5769569 16.8526417,21.2576957 17.1410292,20.0439754 C17.1951018,19.7977133 17.2491745,19.6042216 17.2852229,19.4283201 C17.2852229,19.2172383 17.213126,19.0061566 17.0689323,18.8126649 C16.8886901,18.6367634 16.708448,18.5312225 16.5101816,18.5312225 C16.3659879,18.5312225 16.293891,18.6367634 16.2578426,18.8126649 C15.8613099,20.6244503 15.6810677,22.0668426 15.6810677,23.1398417 C15.6810677,24.1600704 15.789213,24.9692172 16.0055036,25.6024626 C16.1496973,26.0246262 16.3840121,26.235708 16.7444964,26.235708 C16.8165933,26.235708 16.9067144,26.0949868 17.0328839,25.8487247 C17.1410292,25.6200528 17.2311502,25.3913808 17.3392955,25.1451187 C17.9881673,23.878628 19.1777655,22.6473175 20.890066,21.4511873 L20.5836544,24.4239226 C20.5115575,24.9164468 20.4755091,25.3034301 20.4574849,25.5496922 C20.4574849,25.7431838 20.5295817,25.9190853 20.6737755,26.0949868 C20.8179692,26.2532982 20.9982113,26.3412489 21.1964777,26.3412489 C21.3406714,26.3412489 21.4127683,26.235708 21.4488167,26.0598065 C21.556962,25.1099384 21.6290589,24.3183817 21.7011558,23.7027265 C21.809301,22.5417766 21.8813979,21.5567282 21.8813979,20.7651715 Z M26.9101541,10.7211961 C26.9101541,10.2462621 26.7118877,10 26.315355,10 C25.9728949,10 25.7025316,10.1934916 25.5222895,10.5628848 C25.39612,10.8091469 25.2519263,11.2137203 25.0897083,11.8117854 C24.9274904,12.3922603 24.8013209,12.7792436 24.6931756,12.9903254 C24.5489818,13.2365875 24.3507155,13.5356201 24.0983764,13.887423 C23.9722069,14.0457344 23.9181343,14.2040457 23.9181343,14.3623571 C23.9181343,14.7141601 24.0803522,14.8900616 24.4408365,14.8900616 C24.7652724,14.8900616 25.2699505,14.2744063 25.9548707,13.0255057 C26.5857182,11.8469657 26.9101541,11.0729991 26.9101541,10.7211961 Z M34.7506879,19.762533 C34.7506879,19.2700088 34.3000826,19.0061566 33.3988718,19.0061566 C33.254678,19.0061566 32.9843148,19.0061566 32.5517336,18.9885664 L31.8127408,18.9885664 C31.9749587,18.23219 32.2092735,17.3175022 32.497661,16.2269129 C32.6418547,15.6112577 32.7680242,15.171504 32.8761695,14.9252419 C32.9482664,14.7669305 32.9843148,14.6437995 32.9843148,14.5558487 C32.9843148,14.1512753 32.7860484,13.9401935 32.3895157,13.9401935 C32.1732251,13.9401935 32.0110072,14.0985048 31.9208861,14.3975374 C31.3441112,16.4379947 30.9295542,17.9683377 30.6952394,19.0061566 C29.9382223,19.0061566 29.5597138,19.1996482 29.5597138,19.5690413 C29.5597138,19.9912049 29.8481013,20.1846966 30.4248762,20.1846966 L29.8481013,23.0343008 C29.6137865,24.1952507 29.5056412,25.0395778 29.5056412,25.5848725 C29.5056412,26.4291996 29.7219318,26.8689534 30.1905614,26.8689534 C30.3167309,26.8689534 30.4429004,26.7985928 30.5870941,26.6930519 C30.7132636,26.587511 30.7853605,26.4643799 30.7853605,26.3236588 C30.7853605,26.0949868 30.6952394,25.9366755 30.5330215,25.7959543 C30.5330215,24.9692172 30.659191,24.0193492 30.8754816,22.94635 C30.8754816,22.8583993 31.0917722,21.9261214 31.5063291,20.1495163 C31.6144744,20.1495163 31.9749587,20.1671064 32.5697578,20.1671064 C33.1465327,20.1846966 33.5070171,20.1846966 33.6872592,20.1846966 C33.7954045,20.3254178 33.9395982,20.3957784 34.1018162,20.4309587 L34.3541552,20.4309587 C34.6064942,20.1846966 34.7506879,19.9736148 34.7506879,19.762533 Z M49.6747386,13.2541777 C49.6747386,12.9903254 49.4404238,12.8496042 48.9898184,12.8496042 C48.7014309,12.8496042 48.3229224,12.9727353 47.8182444,13.2189974 C47.2775179,13.4652595 46.8990094,13.6763412 46.6646946,13.887423 C45.0605394,15.2594547 44.0331591,17.7924362 43.6005779,21.4511873 C43.276142,21.5391381 43.0598514,21.5919085 42.9697303,21.6094987 C42.609246,21.6798593 42.3388828,21.7150396 42.1766648,21.7150396 C41.8161805,21.7150396 41.6539626,21.9261214 41.6539626,22.3131047 C41.6539626,22.4538259 41.690011,22.5945471 41.7981563,22.700088 C41.9063016,22.8056288 42.0324711,22.8583993 42.1766648,22.8583993 C42.356907,22.8583993 42.7894882,22.7880387 43.4563841,22.6297274 C43.023803,26.1301671 42.5551734,28.117854 42.0324711,28.6103782 C41.9243258,28.6983289 41.8342047,28.7862797 41.7621079,28.8742304 C41.690011,28.944591 41.6539626,29.0677221 41.6539626,29.2436236 C41.6539626,29.4195251 41.7080352,29.5778364 41.8522289,29.7537379 C41.9783985,29.9120493 42.1406164,30 42.3208586,30 C42.5011007,30 42.7173913,29.7713281 42.9697303,29.3491645 C43.6186021,28.117854 44.1232801,25.7959543 44.5198129,22.3834653 C46.2501376,21.996482 47.4938085,21.7326297 48.2147771,21.6094987 C48.3229224,21.644679 48.4130435,21.6622691 48.5211888,21.6622691 C48.7374794,21.6622691 48.9357457,21.5919085 49.1520363,21.4511873 C49.3503027,21.3456464 49.458448,21.1697449 49.458448,20.941073 C49.458448,20.5716799 49.2601816,20.3781882 48.8816731,20.3781882 C48.5211888,20.3781882 48.1607045,20.4309587 47.8002201,20.5013193 C46.3763071,20.8355321 45.3309026,21.0817942 44.6640066,21.2225154 C44.9343698,18.9182058 45.5111447,17.0712401 46.4123555,15.6640281 C47.0612273,14.6437995 48.0345349,14.0633245 49.29623,13.9401935 C49.5485691,13.7994723 49.6747386,13.5708004 49.6747386,13.2541777 Z M55.640754,22.0668426 C55.640754,22.7528584 55.5506329,23.3157432 55.3703908,23.7554969 C55.3163181,23.8962181 55.2442212,24.1072999 55.1360759,24.3887423 C54.9558338,24.8636763 54.6313979,25.2858399 54.1267199,25.6728232 C53.6220418,26.0598065 53.1534122,26.2708883 52.6847826,26.2708883 C51.9277655,26.2708883 51.3149422,25.9542656 50.8463126,25.2858399 C50.3957072,24.705365 50.1794166,24.0193492 50.1794166,23.2277924 C50.1794166,22.5065963 50.3596588,21.7854002 50.7201431,21.0817942 C51.0986516,20.3254178 51.5853054,19.7977133 52.1981288,19.4810906 C52.5225647,19.3227792 52.7568795,19.1644679 52.9010732,18.9885664 C52.9731701,18.9709763 53.0632911,18.9533861 53.1534122,18.9533861 C53.1894606,18.9533861 53.3336544,18.9885664 53.549945,19.058927 C54.1627683,19.2875989 54.6674463,19.6745822 55.0639791,20.237467 C55.4424876,20.8003518 55.640754,21.416007 55.640754,22.0668426 Z M54.5953495,22.3306948 C54.5953495,21.5039578 54.3430105,20.941073 53.8743808,20.6244503 C53.5859934,20.6244503 53.3336544,20.5540897 53.1534122,20.4485488 C52.5225647,20.4837291 52.0359108,20.8003518 51.6754265,21.3984169 C51.3690149,21.9261214 51.2248211,22.5417766 51.2248211,23.2277924 C51.2248211,23.7730871 51.3509906,24.2128408 51.6213539,24.5646438 C51.8917171,24.9516271 52.2341772,25.1275286 52.6667584,25.1275286 C53.135388,25.1275286 53.5679692,24.7933157 54.0005504,24.1248901 C54.3970831,23.5092348 54.5953495,22.9111697 54.5953495,22.3306948 Z M63.8057237,19.7449428 C63.8057237,19.9384345 63.6074573,20.114336 63.2289488,20.2726473 C62.9045129,20.4133685 62.6701981,20.4837291 62.489956,20.4837291 C62.4539075,20.4837291 62.3457622,20.4485488 62.1294717,20.3781882 C60.5793891,21.0817942 59.6421299,22.5417766 59.3537424,24.7933157 C59.1915245,25.9718558 58.9932581,26.5699208 58.7589433,26.5699208 C58.5606769,26.5699208 58.398459,26.4467898 58.2542653,26.235708 C58.1100715,26.0246262 58.0379747,25.8311346 58.0379747,25.5848725 C58.0740231,25.408971 58.14612,25.1099384 58.2362411,24.6701847 C58.3263621,24.1424802 58.3804348,23.649956 58.3804348,23.1926121 C58.3804348,22.6824978 58.3083379,22.1723835 58.2001926,21.6622691 C57.983902,21.4511873 57.8757567,21.2049252 57.8397083,20.9586631 C57.7495872,20.4837291 57.7135388,20.0967458 57.7135388,19.8153034 C57.7135388,19.7097625 57.7495872,19.5866315 57.8397083,19.4459103 C57.9118052,19.3051891 57.983902,19.2348285 58.0740231,19.2348285 C58.4705559,19.2348285 58.7409191,19.5690413 58.8851128,20.2022867 C59.0293065,20.8707124 59.1374518,21.3632366 59.2095487,21.7150396 C59.6421299,20.9234828 60.2008806,20.2550572 60.9218492,19.7097625 C61.6067694,19.182058 62.3097138,18.9182058 63.0306824,18.9182058 C63.2109246,18.9182058 63.3911668,19.0061566 63.5714089,19.182058 C63.7156026,19.3579595 63.7876995,19.5514512 63.8057237,19.7449428 Z M70.3665382,20.5189094 C70.3665382,20.7651715 70.2223445,21.1169745 69.9700055,21.5743184 C69.8798844,21.7150396 69.8077876,22.3306948 69.7537149,23.3861038 C69.6635938,25.057168 69.3031095,26.3764292 68.6542378,27.3966579 C68.005366,28.4168865 67.0320583,29.173263 65.7703632,29.7009675 C65.2656852,29.8944591 64.7790314,30 64.2923775,30 C63.8958448,30 63.6975784,29.8065084 63.6975784,29.4195251 C63.6975784,29.2436236 63.7876995,29.0677221 63.9679417,28.9094107 C64.1481838,28.7335092 64.328426,28.6631486 64.5086681,28.6631486 C64.5447166,28.6631486 64.6889103,28.6983289 64.9232251,28.7686895 C67.2303247,28.2058047 68.4559714,26.587511 68.6362135,23.9138083 C67.9332691,24.5998241 67.1942763,24.9340369 66.4012108,24.9340369 C65.8424601,24.9340369 65.4098789,24.7405453 65.085443,24.3183817 C64.7610072,23.9313984 64.6168134,23.4212841 64.6168134,22.7880387 C64.6168134,21.6974494 64.9772977,20.6948109 65.7343148,19.7449428 C66.5273803,18.7247142 67.5006879,18.1970097 68.6542378,18.1970097 C69.6455696,18.1970097 70.1682719,18.8478452 70.2043203,20.1495163 C70.3124656,20.237467 70.3665382,20.3605981 70.3665382,20.5189094 Z M69.1048431,20.58927 C69.0687947,20.237467 68.9786736,19.9560246 68.8344799,19.7449428 C68.672262,19.5514512 68.4920198,19.4459103 68.2757292,19.4459103 C67.6088332,19.4459103 67.0140341,19.8153034 66.4913319,20.5189094 C65.9506054,21.2576957 65.6982664,21.996482 65.6982664,22.7704485 C65.6982664,23.0870712 65.7703632,23.3509235 65.914557,23.5620053 C66.0587507,23.7906772 66.2750413,23.8962181 66.5273803,23.8962181 C67.7890754,23.8962181 68.5821409,22.94635 68.8885526,21.0466139 C68.9065768,20.8355321 68.9786736,20.6948109 69.1048431,20.58927 Z M78.8559439,25.7959543 C78.8559439,26.2532982 78.2971932,26.4995602 77.2157402,26.4995602 C75.8098514,26.4995602 74.8004953,25.8487247 74.187672,24.5470536 C74.0434783,24.5822339 73.8632361,24.5998241 73.6829939,24.5998241 C73.0521464,24.5998241 72.5474684,24.4942832 72.186984,24.2656113 C71.7363786,24.0193492 71.5200881,23.7554969 71.5200881,23.4740545 C71.5200881,23.0870712 71.7003302,22.8935796 72.0608145,22.8935796 C72.1148872,22.8935796 72.2951293,22.9991205 72.601541,23.2102023 C72.9079527,23.4036939 73.2143643,23.4916447 73.520776,23.4916447 C73.6289213,23.4916447 73.7550908,23.4916447 73.8632361,23.4740545 C73.8091635,23.1926121 73.7911392,22.9287599 73.7911392,22.6649077 C73.7911392,21.8205805 74.0074298,20.9938434 74.440011,20.2022867 C74.9266648,19.3051891 75.5394882,18.8478452 76.278481,18.8478452 C76.7290864,18.8478452 77.1796918,19.0941073 77.6483214,19.5514512 C77.9727573,19.9032542 78.1529994,20.3078276 78.1529994,20.7651715 C78.1529994,21.4687775 77.8465878,22.1372032 77.2517887,22.8056288 C76.7110622,23.4212841 76.0441662,23.8962181 75.2511007,24.230431 C75.611585,24.9692172 76.1703357,25.3386104 76.9634012,25.3386104 C77.1256192,25.3386104 77.3779582,25.3210202 77.7204183,25.2506596 C78.0448542,25.2154793 78.2431205,25.1978892 78.3332416,25.1978892 C78.4774353,25.1978892 78.5855806,25.2682498 78.6937259,25.3913808 C78.8018712,25.532102 78.8559439,25.6552331 78.8559439,25.7959543 Z M77.0895707,20.8531223 C77.0895707,20.6420405 76.9814254,20.4485488 76.8011833,20.2726473 C76.6029169,20.114336 76.4046505,20.0263852 76.2063841,20.0263852 C75.8458998,20.0263852 75.5394882,20.3078276 75.2871491,20.8355321 C75.0348101,21.3632366 74.9086406,21.9261214 74.9086406,22.4890062 C74.9086406,22.700088 74.9266648,22.94635 74.9627133,23.1926121 C75.5394882,22.94635 76.0441662,22.6121372 76.4587232,22.1723835 C76.8732801,21.76781 77.0895707,21.3280563 77.0895707,20.8531223 Z M86.0115575,19.762533 C86.0115575,19.2700088 85.5609521,19.0061566 84.6597413,19.0061566 C84.5155476,19.0061566 84.2451844,19.0061566 83.8126032,18.9885664 L83.0736103,18.9885664 C83.2358283,18.23219 83.4701431,17.3175022 83.7585305,16.2269129 C83.9027243,15.6112577 84.0288938,15.171504 84.1370391,14.9252419 C84.2091359,14.7669305 84.2451844,14.6437995 84.2451844,14.5558487 C84.2451844,14.1512753 84.046918,13.9401935 83.6503853,13.9401935 C83.4340947,13.9401935 83.2718767,14.0985048 83.1817556,14.3975374 C82.6049807,16.4379947 82.1904238,17.9683377 81.956109,19.0061566 C81.1990919,19.0061566 80.8205834,19.1996482 80.8205834,19.5690413 C80.8205834,19.9912049 81.1089708,20.1846966 81.6857457,20.1846966 L81.1089708,23.0343008 C80.874656,24.1952507 80.7665107,25.0395778 80.7665107,25.5848725 C80.7665107,26.4291996 80.9828013,26.8689534 81.4514309,26.8689534 C81.5776004,26.8689534 81.70377,26.7985928 81.8479637,26.6930519 C81.9741332,26.587511 82.04623,26.4643799 82.04623,26.3236588 C82.04623,26.0949868 81.956109,25.9366755 81.793891,25.7959543 C81.793891,24.9692172 81.9200605,24.0193492 82.1363511,22.94635 C82.1363511,22.8583993 82.3526417,21.9261214 82.7671987,20.1495163 C82.875344,20.1495163 83.2358283,20.1671064 83.8306274,20.1671064 C84.4074023,20.1846966 84.7678866,20.1846966 84.9481288,20.1846966 C85.0562741,20.3254178 85.2004678,20.3957784 85.3626857,20.4309587 L85.6150248,20.4309587 C85.8673638,20.1846966 86.0115575,19.9736148 86.0115575,19.762533 Z M98.8988718,19.762533 C98.8988718,19.2700088 98.4482664,19.0061566 97.5470556,19.0061566 C97.4028619,19.0061566 97.1324986,19.0061566 96.6999174,18.9885664 L95.9609246,18.9885664 C96.1231425,18.23219 96.3574573,17.3175022 96.6458448,16.2269129 C96.7900385,15.6112577 96.916208,15.171504 97.0243533,14.9252419 C97.0964502,14.7669305 97.1324986,14.6437995 97.1324986,14.5558487 C97.1324986,14.1512753 96.9342323,13.9401935 96.5376995,13.9401935 C96.3214089,13.9401935 96.159191,14.0985048 96.0690699,14.3975374 C95.492295,16.4379947 95.077738,17.9683377 94.8434232,19.0061566 C94.0864062,19.0061566 93.7078976,19.1996482 93.7078976,19.5690413 C93.7078976,19.9912049 93.9962851,20.1846966 94.57306,20.1846966 L93.9962851,23.0343008 C93.7619703,24.1952507 93.653825,25.0395778 93.653825,25.5848725 C93.653825,26.4291996 93.8701156,26.8689534 94.3387452,26.8689534 C94.4649147,26.8689534 94.5910842,26.7985928 94.7352779,26.6930519 C94.8614474,26.587511 94.9335443,26.4643799 94.9335443,26.3236588 C94.9335443,26.0949868 94.8434232,25.9366755 94.6812053,25.7959543 C94.6812053,24.9692172 94.8073748,24.0193492 95.0236654,22.94635 C95.0236654,22.8583993 95.239956,21.9261214 95.6545129,20.1495163 C95.7626582,20.1495163 96.1231425,20.1671064 96.7179417,20.1671064 C97.2947166,20.1846966 97.6552009,20.1846966 97.835443,20.1846966 C97.9435883,20.3254178 98.0877821,20.3957784 98.25,20.4309587 L98.502339,20.4309587 C98.754678,20.1846966 98.8988718,19.9736148 98.8988718,19.762533 Z M105.279444,22.0668426 C105.279444,22.7528584 105.189323,23.3157432 105.009081,23.7554969 C104.955008,23.8962181 104.882911,24.1072999 104.774766,24.3887423 C104.594524,24.8636763 104.270088,25.2858399 103.76541,25.6728232 C103.260732,26.0598065 102.792102,26.2708883 102.323473,26.2708883 C101.566456,26.2708883 100.953632,25.9542656 100.485003,25.2858399 C100.034397,24.705365 99.8181068,24.0193492 99.8181068,23.2277924 C99.8181068,22.5065963 99.9983489,21.7854002 100.358833,21.0817942 C100.737342,20.3254178 101.223996,19.7977133 101.836819,19.4810906 C102.161255,19.3227792 102.39557,19.1644679 102.539763,18.9885664 C102.61186,18.9709763 102.701981,18.9533861 102.792102,18.9533861 C102.828151,18.9533861 102.972345,18.9885664 103.188635,19.058927 C103.801458,19.2875989 104.306136,19.6745822 104.702669,20.237467 C105.081178,20.8003518 105.279444,21.416007 105.279444,22.0668426 Z M104.23404,22.3306948 C104.23404,21.5039578 103.981701,20.941073 103.513071,20.6244503 C103.224684,20.6244503 102.972345,20.5540897 102.792102,20.4485488 C102.161255,20.4837291 101.674601,20.8003518 101.314117,21.3984169 C101.007705,21.9261214 100.863511,22.5417766 100.863511,23.2277924 C100.863511,23.7730871 100.989681,24.2128408 101.260044,24.5646438 C101.530407,24.9516271 101.872867,25.1275286 102.305449,25.1275286 C102.774078,25.1275286 103.206659,24.7933157 103.639241,24.1248901 C104.035773,23.5092348 104.23404,22.9111697 104.23404,22.3306948 Z M118.058613,19.4283201 C118.00454,19.2700088 117.968492,19.1468777 117.950468,19.058927 C117.860347,18.7423043 117.734177,18.5664028 117.571959,18.5136324 C117.247523,18.4256816 116.97716,18.3729112 116.778894,18.3729112 C116.274216,18.3729112 115.94978,18.5136324 115.841635,18.7950748 C115.012521,19.0941073 114.615988,19.6218118 114.615988,20.3957784 C114.615988,20.7124011 114.670061,21.0290237 114.79623,21.3632366 C114.940424,21.7150396 115.066593,22.0492524 115.192763,22.3658751 C115.715465,23.8082674 115.985828,24.6701847 115.985828,24.9164468 C115.985828,25.4793316 115.553247,25.7431838 114.688085,25.7431838 C114.525867,25.7431838 114.291552,25.7255937 113.98514,25.6728232 C113.660704,25.6376429 113.480462,25.6200528 113.408365,25.6200528 C113.101954,25.6200528 112.95776,25.8487247 112.95776,26.2884785 C112.95776,26.6754617 113.516511,26.8865435 114.634012,26.8865435 C115.318932,26.8865435 115.877683,26.7634125 116.310264,26.5347405 C116.814942,26.235708 117.067281,25.8135444 117.067281,25.2330695 C117.067281,24.7757256 116.869015,24.0193492 116.490506,22.94635 C116.328288,22.5241865 116.16607,22.1020229 115.985828,21.6798593 C115.769538,21.1521548 115.679417,20.8003518 115.679417,20.6420405 C115.679417,20.1319261 115.967804,19.8680739 116.580627,19.8680739 C116.688773,19.8680739 116.850991,19.885664 117.067281,19.9032542 C117.283572,19.9384345 117.44579,19.9384345 117.553935,19.9384345 C117.860347,19.9384345 118.022565,19.7801231 118.058613,19.4283201 Z M125.881123,26.2884785 C125.809026,25.8135444 125.772977,25.4441513 125.736929,25.1627089 C125.628784,24.0721196 125.592735,23.2629727 125.592735,22.7176781 C125.592735,22.5241865 125.592735,22.2251539 125.628784,21.8381706 C125.664832,21.4687775 125.682856,21.2225154 125.682856,21.0993843 C125.682856,20.8531223 125.610759,20.6420405 125.466566,20.4309587 C125.304348,20.237467 125.124106,20.1319261 124.907815,20.1319261 C124.547331,20.1319261 123.826362,20.5540897 122.762933,21.3984169 C121.825674,22.1547933 121.068657,22.8759894 120.491882,23.5620053 C120.708173,21.4687775 121.158778,18.6719437 121.879747,15.1539138 C122.041965,14.2919965 122.132086,13.8346526 122.132086,13.7818821 C122.132086,13.5708004 122.059989,13.3597186 121.915795,13.1486368 C121.771602,12.9551451 121.591359,12.8496042 121.411117,12.8496042 C121.284948,12.8496042 121.194827,12.937555 121.140754,13.0782762 C121.104706,13.1662269 121.050633,13.3948989 120.978536,13.7818821 L120.636076,15.7519789 C120.167446,18.3025506 119.933132,19.6394019 119.933132,19.7449428 C119.662768,21.416007 119.536599,22.8583993 119.536599,24.0545295 C119.536599,24.1248901 119.536599,24.2832014 119.554623,24.4942832 L119.554623,24.9340369 C119.554623,24.9692172 119.536599,25.0747581 119.536599,25.2506596 C119.50055,25.4265611 119.50055,25.532102 119.50055,25.5672823 C119.50055,25.760774 119.572647,25.9366755 119.734865,26.112577 C119.897083,26.2884785 120.077325,26.3764292 120.293616,26.3764292 C120.383737,26.3764292 120.527931,26.1477573 120.726197,25.7255937 C120.834342,25.4617414 120.960512,25.1978892 121.104706,24.9164468 C121.68148,23.8434477 122.817006,22.7528584 124.529307,21.6270888 L124.655476,24.7405453 C124.691524,25.9718558 125.01596,26.6051011 125.610759,26.6051011 C125.791002,26.6051011 125.881123,26.4995602 125.881123,26.2884785 Z M133.901899,21.8205805 C133.901899,21.8909411 133.86585,21.996482 133.829802,22.1372032 C133.559439,22.8759894 133.433269,23.6675462 133.433269,24.4766931 C133.433269,24.7757256 133.451293,25.0747581 133.52339,25.3562005 C133.631535,25.883905 133.703632,26.1477573 133.703632,26.1829376 C133.703632,26.5171504 133.505366,26.6930519 133.126857,26.6930519 C132.766373,26.6930519 132.568107,26.3940193 132.514034,25.8311346 C132.477986,25.532102 132.423913,25.057168 132.351816,24.4063325 C131.360484,25.5672823 130.405201,26.1477573 129.485966,26.1477573 C128.999312,26.1477573 128.584755,25.9366755 128.242295,25.4793316 C127.899835,25.0923483 127.737617,24.6350044 127.737617,24.1248901 C127.737617,23.3157432 128.098101,22.471416 128.855118,21.5567282 C128.999312,21.3808267 129.269675,21.0993843 129.648184,20.7475814 C130.837782,19.6921724 131.829114,19.1644679 132.658228,19.1644679 C132.83847,19.1644679 133.036736,19.2524186 133.235003,19.3931398 C133.415245,19.5514512 133.52339,19.7273527 133.52339,19.9208443 C133.52339,19.9560246 133.505366,20.0439754 133.469318,20.1671064 C133.613511,20.5189094 133.685608,20.9234828 133.685608,21.3632366 C133.829802,21.5391381 133.901899,21.6974494 133.901899,21.8205805 Z M132.640204,21.3280563 C132.640204,20.7124011 132.477986,20.3957784 132.189598,20.3957784 C131.955283,20.3957784 131.576775,20.58927 131.072097,20.9586631 C130.603467,21.292876 130.224959,21.6270888 129.936571,21.9613017 C129.179554,22.7880387 128.81907,23.4916447 128.81907,24.0721196 C128.81907,24.6877748 129.053385,24.9868074 129.558063,24.9868074 C130.242983,24.9868074 130.909879,24.5822339 131.594799,23.7379068 C132.279719,22.8935796 132.640204,22.1020229 132.640204,21.3280563 Z M142.066868,19.7449428 C142.048844,19.5514512 141.976747,19.3579595 141.832554,19.182058 C141.652312,19.0061566 141.472069,18.9182058 141.291827,18.9182058 C140.570859,18.9182058 139.867914,19.182058 139.182994,19.7097625 C138.462025,20.2550572 137.903275,20.9234828 137.470693,21.7150396 C137.398597,21.3632366 137.290451,20.8707124 137.146258,20.2022867 C137.002064,19.5690413 136.731701,19.2348285 136.335168,19.2348285 C136.245047,19.2348285 136.17295,19.3051891 136.100853,19.4459103 C136.010732,19.5866315 135.974684,19.7097625 135.974684,19.8153034 C135.974684,20.0967458 136.010732,20.4837291 136.100853,20.9586631 C136.136901,21.2049252 136.245047,21.4511873 136.461337,21.6622691 C136.569483,22.1723835 136.64158,22.6824978 136.64158,23.1926121 C136.64158,23.649956 136.587507,24.1424802 136.497386,24.6701847 C136.407265,25.1099384 136.335168,25.408971 136.299119,25.5848725 C136.299119,25.8311346 136.371216,26.0246262 136.51541,26.235708 C136.659604,26.4467898 136.821822,26.5699208 137.020088,26.5699208 C137.254403,26.5699208 137.452669,25.9718558 137.614887,24.7933157 C137.903275,22.5417766 138.840534,21.0817942 140.390616,20.3781882 C140.606907,20.4485488 140.715052,20.4837291 140.751101,20.4837291 C140.931343,20.4837291 141.165658,20.4133685 141.490094,20.2726473 C141.868602,20.114336 142.066868,19.9384345 142.066868,19.7449428 Z M149.600991,25.7959543 C149.600991,26.2532982 149.04224,26.4995602 147.960787,26.4995602 C146.554898,26.4995602 145.545542,25.8487247 144.932719,24.5470536 C144.788525,24.5822339 144.608283,24.5998241 144.428041,24.5998241 C143.797193,24.5998241 143.292515,24.4942832 142.932031,24.2656113 C142.481425,24.0193492 142.265135,23.7554969 142.265135,23.4740545 C142.265135,23.0870712 142.445377,22.8935796 142.805861,22.8935796 C142.859934,22.8935796 143.040176,22.9991205 143.346588,23.2102023 C143.652999,23.4036939 143.959411,23.4916447 144.265823,23.4916447 C144.373968,23.4916447 144.500138,23.4916447 144.608283,23.4740545 C144.55421,23.1926121 144.536186,22.9287599 144.536186,22.6649077 C144.536186,21.8205805 144.752477,20.9938434 145.185058,20.2022867 C145.671712,19.3051891 146.284535,18.8478452 147.023528,18.8478452 C147.474133,18.8478452 147.924739,19.0941073 148.393368,19.5514512 C148.717804,19.9032542 148.898046,20.3078276 148.898046,20.7651715 C148.898046,21.4687775 148.591635,22.1372032 147.996835,22.8056288 C147.456109,23.4212841 146.789213,23.8962181 145.996147,24.230431 C146.356632,24.9692172 146.915382,25.3386104 147.708448,25.3386104 C147.870666,25.3386104 148.123005,25.3210202 148.465465,25.2506596 C148.789901,25.2154793 148.988167,25.1978892 149.078288,25.1978892 C149.222482,25.1978892 149.330627,25.2682498 149.438773,25.3913808 C149.546918,25.532102 149.600991,25.6552331 149.600991,25.7959543 Z M147.834618,20.8531223 C147.834618,20.6420405 147.726472,20.4485488 147.54623,20.2726473 C147.347964,20.114336 147.149697,20.0263852 146.951431,20.0263852 C146.590947,20.0263852 146.284535,20.3078276 146.032196,20.8355321 C145.779857,21.3632366 145.653687,21.9261214 145.653687,22.4890062 C145.653687,22.700088 145.671712,22.94635 145.70776,23.1926121 C146.284535,22.94635 146.789213,22.6121372 147.20377,22.1723835 C147.618327,21.76781 147.834618,21.3280563 147.834618,20.8531223 Z M160.433544,13.5356201 C160.433544,12.7968338 160.127133,12.4098505 159.532334,12.3394899 C159.063704,12.4978012 158.811365,12.7616535 158.775316,13.1486368 C158.775316,13.2717678 158.793341,13.3773087 158.793341,13.4828496 C158.793341,14.0985048 159.135801,14.467898 159.838745,14.591029 C160.235278,14.5558487 160.433544,14.2040457 160.433544,13.5356201 Z M159.460237,20.1671064 C159.460237,19.6042216 159.117777,19.2875989 158.450881,19.2524186 C158.270638,19.3579595 158.180517,19.4986807 158.180517,19.6569921 C158.180517,19.7097625 158.198542,19.8504837 158.23459,20.0615655 C157.729912,22.4890062 157.495597,23.9138083 157.495597,24.3711522 C157.495597,24.9340369 157.585718,25.3737907 157.76596,25.7255937 C158.000275,26.1653474 158.252614,26.3940193 158.541002,26.3940193 C158.757292,26.3940193 158.883462,26.2708883 158.883462,26.0246262 C158.883462,25.7431838 158.757292,25.4617414 158.522977,25.2154793 C158.522977,24.3007916 158.721244,23.0167106 159.135801,21.3632366 C159.26197,20.9058927 159.370116,20.5189094 159.460237,20.1671064 Z M169.752064,13.2541777 C169.752064,12.9903254 169.517749,12.8496042 169.067144,12.8496042 C168.778756,12.8496042 168.400248,12.9727353 167.89557,13.2189974 C167.354843,13.4652595 166.976335,13.6763412 166.74202,13.887423 C165.137865,15.2594547 164.110484,17.7924362 163.677903,21.4511873 C163.353467,21.5391381 163.137177,21.5919085 163.047056,21.6094987 C162.686571,21.6798593 162.416208,21.7150396 162.25399,21.7150396 C161.893506,21.7150396 161.731288,21.9261214 161.731288,22.3131047 C161.731288,22.4538259 161.767336,22.5945471 161.875482,22.700088 C161.983627,22.8056288 162.109796,22.8583993 162.25399,22.8583993 C162.434232,22.8583993 162.866813,22.7880387 163.533709,22.6297274 C163.101128,26.1301671 162.632499,28.117854 162.109796,28.6103782 C162.001651,28.6983289 161.91153,28.7862797 161.839433,28.8742304 C161.767336,28.944591 161.731288,29.0677221 161.731288,29.2436236 C161.731288,29.4195251 161.78536,29.5778364 161.929554,29.7537379 C162.055724,29.9120493 162.217942,30 162.398184,30 C162.578426,30 162.794717,29.7713281 163.047056,29.3491645 C163.695927,28.117854 164.200605,25.7959543 164.597138,22.3834653 C166.327463,21.996482 167.571134,21.7326297 168.292102,21.6094987 C168.400248,21.644679 168.490369,21.6622691 168.598514,21.6622691 C168.814805,21.6622691 169.013071,21.5919085 169.229362,21.4511873 C169.427628,21.3456464 169.535773,21.1697449 169.535773,20.941073 C169.535773,20.5716799 169.337507,20.3781882 168.958998,20.3781882 C168.598514,20.3781882 168.23803,20.4309587 167.877545,20.5013193 C166.453632,20.8355321 165.408228,21.0817942 164.741332,21.2225154 C165.011695,18.9182058 165.58847,17.0712401 166.489681,15.6640281 C167.138553,14.6437995 168.11186,14.0633245 169.373555,13.9401935 C169.625894,13.7994723 169.752064,13.5708004 169.752064,13.2541777 Z M182.60333,23.0343008 L182.60333,21.5567282 C182.60333,20.5364996 182.405063,20.0263852 182.008531,20.0263852 C181.720143,20.0263852 181.503853,20.2726473 181.32361,20.7475814 C180.945102,21.6798593 180.512521,22.4362357 180.025867,23.0167106 C179.521189,23.6147757 179.052559,23.8962181 178.619978,23.8962181 C178.475784,23.8962181 178.331591,23.8434477 178.223445,23.7379068 C178.097276,23.6323659 178.043203,23.4916447 178.043203,23.3509235 C178.043203,23.0167106 178.097276,22.4362357 178.205421,21.6094987 C178.313566,20.8003518 178.367639,20.1846966 178.367639,19.7977133 C178.367639,19.41073 178.295542,19.0765172 178.187397,18.7598945 C178.061227,18.4432718 177.880985,18.2849604 177.64667,18.2849604 C177.250138,18.2849604 177.069895,18.4432718 177.069895,18.7423043 C177.069895,18.7950748 177.08792,18.935796 177.160017,19.1468777 C177.214089,19.3579595 177.250138,19.533861 177.250138,19.6745822 C177.250138,20.0615655 177.196065,20.6420405 177.123968,21.4511873 C177.015823,22.2603342 176.979774,22.8408091 176.979774,23.2277924 C176.979774,23.7730871 177.123968,24.2128408 177.43038,24.5294635 C177.700743,24.8812665 178.097276,25.0395778 178.601954,25.0395778 C179.178729,25.0395778 179.755504,24.7405453 180.350303,24.1248901 C180.836957,23.6323659 181.233489,23.0518909 181.557925,22.3834653 C181.557925,23.4564644 181.503853,24.3007916 181.395707,24.9340369 C180.945102,27.4846086 179.286874,28.7686895 176.439048,28.7686895 C176.258806,28.7686895 175.93437,28.7335092 175.46574,28.6807388 C175.141304,28.6983289 174.961062,28.8742304 174.961062,29.2084433 C174.961062,29.7361478 175.46574,30 176.457072,30 C178.169373,30 179.575261,29.525066 180.656714,28.6103782 C181.954458,27.4846086 182.60333,25.6376429 182.60333,23.0343008 Z M189.903137,22.0668426 C189.903137,22.7528584 189.813016,23.3157432 189.632774,23.7554969 C189.578701,23.8962181 189.506604,24.1072999 189.398459,24.3887423 C189.218217,24.8636763 188.893781,25.2858399 188.389103,25.6728232 C187.884425,26.0598065 187.415795,26.2708883 186.947166,26.2708883 C186.190149,26.2708883 185.577325,25.9542656 185.108696,25.2858399 C184.65809,24.705365 184.4418,24.0193492 184.4418,23.2277924 C184.4418,22.5065963 184.622042,21.7854002 184.982526,21.0817942 C185.361035,20.3254178 185.847688,19.7977133 186.460512,19.4810906 C186.784948,19.3227792 187.019263,19.1644679 187.163456,18.9885664 C187.235553,18.9709763 187.325674,18.9533861 187.415795,18.9533861 C187.451844,18.9533861 187.596037,18.9885664 187.812328,19.058927 C188.425151,19.2875989 188.929829,19.6745822 189.326362,20.237467 C189.704871,20.8003518 189.903137,21.416007 189.903137,22.0668426 Z M188.857733,22.3306948 C188.857733,21.5039578 188.605394,20.941073 188.136764,20.6244503 C187.848376,20.6244503 187.596037,20.5540897 187.415795,20.4485488 C186.784948,20.4837291 186.298294,20.8003518 185.93781,21.3984169 C185.631398,21.9261214 185.487204,22.5417766 185.487204,23.2277924 C185.487204,23.7730871 185.613374,24.2128408 185.883737,24.5646438 C186.1541,24.9516271 186.49656,25.1275286 186.929141,25.1275286 C187.397771,25.1275286 187.830352,24.7933157 188.262933,24.1248901 C188.659466,23.5092348 188.857733,22.9111697 188.857733,22.3306948 Z M198.969318,19.885664 C198.969318,19.5690413 198.8071,19.3931398 198.500688,19.3931398 C198.356494,19.3931398 198.230325,19.4986807 198.104155,19.7097625 C197.31109,21.0290237 196.536048,22.1372032 195.742983,23.0518909 C194.66153,24.3183817 193.760319,24.9340369 193.057375,24.9340369 C192.877133,24.9340369 192.787012,24.8109059 192.787012,24.5646438 C192.787012,24.4591029 192.82306,24.1600704 192.913181,23.6675462 C193.255641,21.76781 193.435883,20.6244503 193.435883,20.237467 C193.435883,19.6042216 193.273665,19.2875989 192.985278,19.2875989 C192.841084,19.2875989 192.714915,19.3579595 192.606769,19.4810906 C192.498624,19.6218118 192.444551,19.7449428 192.444551,19.885664 C192.444551,19.9208443 192.444551,19.9912049 192.462576,20.0615655 L192.462576,20.2550572 C192.462576,20.7475814 192.336406,21.5919085 192.102091,22.7880387 C191.849752,23.9138083 191.741607,24.6525945 191.741607,24.9868074 C191.741607,25.3386104 191.867777,25.6200528 192.120116,25.8311346 C192.35443,26.0422164 192.678866,26.1477573 193.075399,26.1477573 C193.97661,26.1477573 195.418547,25.0043975 197.401211,22.7176781 C197.220969,23.6147757 197.112823,24.5646438 197.076775,25.5672823 C196.986654,25.6904134 196.950605,25.8135444 196.950605,25.9366755 C196.950605,26.0773967 197.022702,26.1829376 197.166896,26.2884785 C197.293065,26.3764292 197.437259,26.4291996 197.581453,26.4291996 C198.014034,26.4291996 198.248349,26.1829376 198.248349,25.7255937 C198.248349,25.6904134 198.2123,25.532102 198.176252,25.2506596 C198.140204,25.0043975 198.122179,24.828496 198.122179,24.7229551 C198.122179,24.5822339 198.140204,24.3183817 198.194276,23.9313984 C198.428591,22.1723835 198.644882,21.0114336 198.843148,20.466139 C198.915245,20.2726473 198.969318,20.0791557 198.969318,19.885664 Z M209.819895,13.9226033 C209.819895,13.7115215 209.675702,13.4652595 209.405338,13.2189974 C209.116951,12.9727353 208.90066,12.8496042 208.720418,12.8496042 C208.576225,12.8496042 208.486103,12.9727353 208.414007,13.2014072 C207.620941,15.7871592 207.242433,18.1970097 207.242433,20.4309587 C207.242433,21.5743184 207.260457,22.5065963 207.332554,23.2102023 C207.224408,23.3861038 207.170336,23.5971856 207.170336,23.8610378 C207.170336,23.9313984 207.170336,24.1248901 207.18836,24.4591029 C207.18836,24.8109059 207.206384,25.0043975 207.206384,25.0747581 C207.206384,25.3386104 207.314529,25.6552331 207.566868,26.0246262 C207.819207,26.4116095 208.071547,26.6226913 208.323886,26.6226913 C208.504128,26.6226913 208.594249,26.5347405 208.594249,26.3588391 C208.414007,24.9516271 208.34191,23.1574318 208.34191,20.9938434 C208.34191,20.0967458 208.414007,18.9885664 208.594249,17.6868953 C208.738442,16.473175 208.918685,15.4881266 209.116951,14.7317502 L209.243121,14.6262093 C209.621629,14.4503078 209.819895,14.2040457 209.819895,13.9226033 Z M214.434095,13.5356201 C214.434095,12.7968338 214.127683,12.4098505 213.532884,12.3394899 C213.064254,12.4978012 212.811915,12.7616535 212.775867,13.1486368 C212.775867,13.2717678 212.793891,13.3773087 212.793891,13.4828496 C212.793891,14.0985048 213.136351,14.467898 213.839296,14.591029 C214.235828,14.5558487 214.434095,14.2040457 214.434095,13.5356201 Z M213.460787,20.1671064 C213.460787,19.6042216 213.118327,19.2875989 212.451431,19.2524186 C212.271189,19.3579595 212.181068,19.4986807 212.181068,19.6569921 C212.181068,19.7097625 212.199092,19.8504837 212.23514,20.0615655 C211.730462,22.4890062 211.496147,23.9138083 211.496147,24.3711522 C211.496147,24.9340369 211.586269,25.3737907 211.766511,25.7255937 C212.000826,26.1653474 212.253165,26.3940193 212.541552,26.3940193 C212.757843,26.3940193 212.884012,26.2708883 212.884012,26.0246262 C212.884012,25.7431838 212.757843,25.4617414 212.523528,25.2154793 C212.523528,24.3007916 212.721794,23.0167106 213.136351,21.3632366 C213.262521,20.9058927 213.370666,20.5189094 213.460787,20.1671064 Z M222.905476,18.3201407 C222.905476,17.9683377 222.689185,17.7748461 222.274629,17.7748461 C222.220556,17.7748461 222.094386,17.8627968 221.878096,18.0211082 C220.886764,18.7247142 219.354706,19.3403694 217.263897,19.8680739 C217.480187,17.880387 217.732526,15.998241 218.038938,14.2040457 C218.147083,13.6411609 218.201156,13.3597186 218.201156,13.3421284 C218.201156,13.0255057 218.002889,12.8496042 217.642405,12.8496042 C217.335993,12.8496042 217.155751,13.0430959 217.083654,13.412489 C216.795267,14.8900616 216.542928,16.5611258 216.362686,18.4608619 C216.146395,20.3605981 216.03825,21.9437115 216.03825,23.1926121 C216.03825,23.2629727 216.03825,23.3685136 216.056274,23.5092348 C216.056274,23.6675462 216.074298,23.7554969 216.074298,23.7554969 C216.074298,23.7906772 216.056274,23.8610378 216.056274,23.9489886 C216.03825,24.0369393 216.03825,24.0897098 216.03825,24.1248901 C215.948129,24.2480211 215.91208,24.3887423 215.91208,24.5646438 C215.91208,24.8812665 215.966153,25.1627089 216.074298,25.4441513 C216.218492,25.7959543 216.398734,25.9542656 216.633049,25.9542656 C216.975509,25.9542656 217.155751,25.7255937 217.155751,25.2330695 C217.155751,25.1275286 217.137727,24.6350044 217.137727,23.7203166 C217.119703,22.700088 217.119703,22.1020229 217.119703,21.9437115 C218.417446,23.3157432 219.607045,24.5118734 220.670473,25.5496922 C221.139103,26.0070361 221.445515,26.235708 221.625757,26.235708 C222.022289,26.235708 222.220556,26.0422164 222.220556,25.6552331 C222.220556,25.532102 222.166483,25.4265611 222.076362,25.3210202 L220.976885,24.2480211 C219.534948,22.8408091 218.453495,21.7326297 217.732526,20.9586631 C219.282609,20.5540897 220.454183,20.1495163 221.283297,19.7449428 C222.36475,19.2172383 222.905476,18.7423043 222.905476,18.3201407 Z M231.106494,25.7959543 C231.106494,26.2532982 230.547744,26.4995602 229.466291,26.4995602 C228.060402,26.4995602 227.051046,25.8487247 226.438222,24.5470536 C226.294029,24.5822339 226.113786,24.5998241 225.933544,24.5998241 C225.302697,24.5998241 224.798019,24.4942832 224.437534,24.2656113 C223.986929,24.0193492 223.770638,23.7554969 223.770638,23.4740545 C223.770638,23.0870712 223.950881,22.8935796 224.311365,22.8935796 C224.365438,22.8935796 224.54568,22.9991205 224.852091,23.2102023 C225.158503,23.4036939 225.464915,23.4916447 225.771326,23.4916447 C225.879472,23.4916447 226.005641,23.4916447 226.113786,23.4740545 C226.059714,23.1926121 226.04169,22.9287599 226.04169,22.6649077 C226.04169,21.8205805 226.25798,20.9938434 226.690561,20.2022867 C227.177215,19.3051891 227.790039,18.8478452 228.529031,18.8478452 C228.979637,18.8478452 229.430242,19.0941073 229.898872,19.5514512 C230.223308,19.9032542 230.40355,20.3078276 230.40355,20.7651715 C230.40355,21.4687775 230.097138,22.1372032 229.502339,22.8056288 C228.961613,23.4212841 228.294717,23.8962181 227.501651,24.230431 C227.862135,24.9692172 228.420886,25.3386104 229.213952,25.3386104 C229.37617,25.3386104 229.628509,25.3210202 229.970969,25.2506596 C230.295405,25.2154793 230.493671,25.1978892 230.583792,25.1978892 C230.727986,25.1978892 230.836131,25.2682498 230.944276,25.3913808 C231.052422,25.532102 231.106494,25.6552331 231.106494,25.7959543 Z M229.340121,20.8531223 C229.340121,20.6420405 229.231976,20.4485488 229.051734,20.2726473 C228.853467,20.114336 228.655201,20.0263852 228.456935,20.0263852 C228.09645,20.0263852 227.790039,20.3078276 227.5377,20.8355321 C227.28536,21.3632366 227.159191,21.9261214 227.159191,22.4890062 C227.159191,22.700088 227.177215,22.94635 227.213264,23.1926121 C227.790039,22.94635 228.294717,22.6121372 228.709274,22.1723835 C229.12383,21.76781 229.340121,21.3280563 229.340121,20.8531223 Z M238.748762,13.3773087 C238.748762,13.5180299 238.694689,13.9401935 238.586544,14.6613896 C238.44235,15.4353562 238.370253,16.0158311 238.352229,16.4028144 C238.316181,16.5787159 238.316181,16.824978 238.316181,17.1416007 C238.316181,17.528584 238.208035,17.8627968 237.991745,18.1266491 C237.829527,20.114336 237.75743,21.4335972 237.75743,22.0668426 C237.75743,23.6675462 237.901624,25.1978892 238.190011,26.6754617 C238.262108,27.0448549 238.298156,27.3262973 238.298156,27.5373791 C238.298156,27.6605101 238.244084,27.766051 238.135938,27.8715919 C238.009769,27.9771328 237.883599,28.0474934 237.775454,28.0474934 C237.487067,28.0474934 237.306824,27.7836412 237.234728,27.291117 C237.054485,26.3060686 236.928316,25.2682498 236.856219,24.1424802 C236.567832,24.7229551 236.171299,25.2330695 235.702669,25.6728232 C235.125894,26.2181179 234.567144,26.4995602 234.026417,26.4995602 C233.431618,26.4995602 232.981013,26.3060686 232.674601,25.9542656 C232.350165,25.6024626 232.205971,25.1275286 232.205971,24.5294635 C232.205971,23.5795954 232.620528,22.5417766 233.449642,21.3984169 C234.278756,20.2726473 235.017749,19.6921724 235.702669,19.6921724 C236.063154,19.6921724 236.441662,19.9208443 236.838195,20.3430079 C237.07251,17.1064204 237.396946,14.7493404 237.793478,13.289358 C237.865575,13.0079156 238.027793,12.8496042 238.280132,12.8496042 C238.586544,12.8496042 238.748762,13.0255057 238.748762,13.3773087 Z M236.748074,22.0316623 C236.333517,21.7854002 236.063154,21.416007 235.91896,20.9058927 C235.774766,20.8883026 235.702669,20.8707124 235.666621,20.8707124 C235.252064,20.8707124 234.729362,21.3104661 234.116538,22.1723835 C233.467666,23.0694811 233.161255,23.8434477 233.161255,24.4942832 C233.161255,25.0747581 233.377545,25.3562005 233.846175,25.3562005 C234.440974,25.3562005 235.035773,25.0043975 235.612548,24.3007916 C236.13525,23.6675462 236.513759,22.9111697 236.748074,22.0316623 Z M249.887727,13.5356201 C249.887727,12.7968338 249.581315,12.4098505 248.986516,12.3394899 C248.517887,12.4978012 248.265548,12.7616535 248.229499,13.1486368 C248.229499,13.2717678 248.247523,13.3773087 248.247523,13.4828496 C248.247523,14.0985048 248.589983,14.467898 249.292928,14.591029 C249.689461,14.5558487 249.887727,14.2040457 249.887727,13.5356201 Z M248.914419,20.1671064 C248.914419,19.6042216 248.571959,19.2875989 247.905063,19.2524186 C247.724821,19.3579595 247.6347,19.4986807 247.6347,19.6569921 C247.6347,19.7097625 247.652724,19.8504837 247.688773,20.0615655 C247.184095,22.4890062 246.94978,23.9138083 246.94978,24.3711522 C246.94978,24.9340369 247.039901,25.3737907 247.220143,25.7255937 C247.454458,26.1653474 247.706797,26.3940193 247.995184,26.3940193 C248.211475,26.3940193 248.337644,26.2708883 248.337644,26.0246262 C248.337644,25.7431838 248.211475,25.4617414 247.97716,25.2154793 C247.97716,24.3007916 248.175427,23.0167106 248.589983,21.3632366 C248.716153,20.9058927 248.824298,20.5189094 248.914419,20.1671064 Z M257.16951,19.762533 C257.16951,19.2700088 256.718905,19.0061566 255.817694,19.0061566 C255.6735,19.0061566 255.403137,19.0061566 254.970556,18.9885664 L254.231563,18.9885664 C254.393781,18.23219 254.628096,17.3175022 254.916483,16.2269129 C255.060677,15.6112577 255.186846,15.171504 255.294992,14.9252419 C255.367089,14.7669305 255.403137,14.6437995 255.403137,14.5558487 C255.403137,14.1512753 255.204871,13.9401935 254.808338,13.9401935 C254.592047,13.9401935 254.429829,14.0985048 254.339708,14.3975374 C253.762933,16.4379947 253.348376,17.9683377 253.114062,19.0061566 C252.357045,19.0061566 251.978536,19.1996482 251.978536,19.5690413 C251.978536,19.9912049 252.266924,20.1846966 252.843698,20.1846966 L252.266924,23.0343008 C252.032609,24.1952507 251.924463,25.0395778 251.924463,25.5848725 C251.924463,26.4291996 252.140754,26.8689534 252.609384,26.8689534 C252.735553,26.8689534 252.861723,26.7985928 253.005916,26.6930519 C253.132086,26.587511 253.204183,26.4643799 253.204183,26.3236588 C253.204183,26.0949868 253.114062,25.9366755 252.951844,25.7959543 C252.951844,24.9692172 253.078013,24.0193492 253.294304,22.94635 C253.294304,22.8583993 253.510594,21.9261214 253.925151,20.1495163 C254.033297,20.1495163 254.393781,20.1671064 254.98858,20.1671064 C255.565355,20.1846966 255.925839,20.1846966 256.106081,20.1846966 C256.214227,20.3254178 256.35842,20.3957784 256.520638,20.4309587 L256.772977,20.4309587 C257.025316,20.1846966 257.16951,19.9736148 257.16951,19.762533 Z M262,14.3975374 C262,14.0281442 261.837782,13.8346526 261.53137,13.8346526 C261.31508,13.8346526 261.080765,13.9753738 260.828426,14.2216359 C260.684232,14.5206684 260.612135,14.7493404 260.576087,14.9252419 C260.540039,15.1011434 260.522014,15.2066843 260.522014,15.2418646 C260.522014,15.3474055 260.540039,15.4529464 260.576087,15.5408971 C260.395845,16.4555849 260.233627,17.4758135 260.125482,18.5664028 C260.071409,19.1644679 260.017336,20.0263852 259.963264,21.1873351 C259.909191,22.119613 259.891167,22.6297274 259.891167,22.7352682 C259.891167,23.0870712 260.053385,23.2629727 260.395845,23.2629727 C260.720281,23.2629727 260.900523,23.0694811 260.936571,22.6473175 C260.954595,22.0844327 261.026692,21.0466139 261.152862,19.533861 C261.261007,18.0386983 261.513346,16.5083553 261.891855,14.9604222 C261.963952,14.6613896 262,14.467898 262,14.3975374 Z M261.152862,26.112577 C261.152862,25.6024626 260.990644,25.2858399 260.702256,25.1627089 C260.558063,25.0747581 260.449917,25.0219877 260.341772,25.0219877 C259.801046,25.0219877 259.512658,25.2858399 259.47661,25.8135444 C259.47661,25.9718558 259.47661,26.0949868 259.512658,26.1829376 C259.548707,26.3236588 259.638828,26.4467898 259.81907,26.5347405 C259.963264,26.7634125 260.16153,26.8865435 260.413869,26.8865435 C260.900523,26.8865435 261.152862,26.6226913 261.152862,26.112577 Z" id="don’t-forget-to-shar"></path>
                    <path d="M292.418401,49.403888 C297.63755,43.270613 304.882105,37.2620995 306.704825,29.1732772 C308.453711,21.4088348 306.416723,12.1073308 304.219758,4.40776439 C306.279186,5.80081557 308.258988,7.3107861 310.22576,8.85925446 C312.028213,10.2779709 314.608108,7.77347301 312.784663,6.33835938 C308.981417,3.34408355 305.157178,0.418248306 300.816815,-1.79323827 C299.833791,-2.29371009 298.40703,-1.86952101 298.172494,-0.695337134 C297.400118,3.16157531 296.691443,7.02062651 295.276989,10.710715 C294.453217,12.8587515 297.961846,13.7491921 298.779103,11.616127 C299.589844,9.50231084 300.164602,7.33074794 300.656838,5.1392232 C302.602618,12.050297 303.985222,19.439742 303.451725,26.5882191 C302.84946,34.6770413 294.843387,41.0277578 289.858774,46.8837058 C288.371208,48.6296538 290.918529,51.1655203 292.418401,49.403888 Z" id="Shape" transform="translate(301.408282, 24.000000) scale(1, -1) rotate(-302.000000) translate(-301.408282, -24.000000) "></path>
                </g>
            </g>
        </g>
    </g>
</svg>